<?xml version="1.0" encoding="UTF-8" standalone="no"?>
<svg
   width="518.75195"
   height="655.6001"
   version="1.1"
   id="svg66"
   sodipodi:docname="Coat_of_arms_of_Paraguay.svg"
   xml:space="preserve"
   xmlns:inkscape="http://www.inkscape.org/namespaces/inkscape"
   xmlns:sodipodi="http://sodipodi.sourceforge.net/DTD/sodipodi-0.dtd"
   xmlns="http://www.w3.org/2000/svg"
   xmlns:svg="http://www.w3.org/2000/svg"><defs
     id="defs70" /><sodipodi:namedview
     id="namedview68"
     pagecolor="#ffffff"
     bordercolor="#000000"
     borderopacity="0.25"
     inkscape:showpageshadow="2"
     inkscape:pageopacity="0.0"
     inkscape:pagecheckerboard="0"
     inkscape:deskcolor="#d1d1d1"
     showgrid="false"
     showguides="true" /><g
     id="g27218"
     transform="translate(922.26562,7628.082)"><path
       style="color:#000000;fill:#393979;fill-opacity:1;-inkscape-stroke:none"
       d="m -403.51367,-7628.082 -518.75195,0.01 v 5 16.2207 482.0234 h 0.0879 c -0.35297,7.6132 1.96337,13.6658 3.01171,16.2149 l 1.2754,3.0976 h 0.11132 c 18.72034,42.7412 52.78905,67.2265 97.42188,74.9844 20.33511,3.6433 39.57211,3.1094 53.1875,5.0684 0.004,5e-4 0.008,0 0.0117,0 36.81455,5.4187 59.29568,18.2807 91.30664,42.9785 l 12.96289,10.002 12.96094,-10.002 c 32.01114,-24.6979 54.49215,-37.5597 91.30664,-42.9785 h 0.0156 c 13.61483,-1.9583 32.84712,-1.4259 53.17969,-5.0684 6.4e-4,-1e-4 0.001,1e-4 0.002,0 45.24215,-7.8638 79.72458,-32.8438 98.22461,-76.707 0.005,-0.011 0.011,-0.02 0.0156,-0.031 0.0292,-0.069 0.0626,-0.1336 0.0918,-0.2031 l -0.0566,-0.025 c 2.58233,-5.6574 3.63477,-11.8554 3.63477,-16.7051 z m -363.9082,602.5724 h 0.004 l 0.0215,0.01 z"
       id="path22593"
       sodipodi:nodetypes="ccccccscccscsccccscssccsccccc" /><path
       style="color:#000000;fill:#ffffff;stroke-width:10;-inkscape-stroke:none"
       d="m -917.26562,-7623.0742 v 16.2207 482.0234 l 0.19531,-2.5097 c -1.21702,7.7703 1.3218,13.8901 2.52929,16.8261 v 0 h 0.002 c 17.83214,43.2995 50.63708,67.3413 95.03906,75.0586 19.71146,3.5348 38.69257,2.9787 53.05469,5.0469 0.001,2e-4 0.003,-2e-4 0.004,0 37.68261,5.5443 61.38628,19.0802 93.64454,43.9688 l 9.9082,7.6445 9.90625,-7.6445 c 32.25964,-24.8897 55.96363,-38.4248 93.64844,-43.9688 14.36213,-2.0682 33.34127,-1.5121 53.05273,-5.0469 44.02231,-7.6513 76.68746,-31.331 94.57813,-73.9511 l -0.60743,1.2832 c 2.63879,-5.0073 3.79688,-11.6074 3.79688,-16.0782 v -498.8808 z m 52.73046,58.332 h 403.2793 v 421.1223 c 0.482,3.8311 -0.29235,5.3091 -1.72096,8.5332 -13.01707,29.3424 -29.626,40.6187 -61.99584,46.239 l -0.0469,0.01 -0.0488,0.01 c -13.64288,2.4529 -30.43214,1.9903 -47.5293,4.4531 h -0.0234 -0.0215 c -35.92298,5.2774 -62.68696,18.948 -90.25195,38.9746 -27.56554,-20.0268 -54.33091,-33.6971 -90.25391,-38.9746 h -0.0234 -0.0215 c -17.09715,-2.4628 -33.88837,-2.0002 -47.53125,-4.4531 l -0.0469,-0.01 -0.0488,-0.01 c -32.8831,-5.7094 -49.54015,-17.2373 -62.61176,-47.6474 -1.30295,-2.3404 -1.10318,-3.7157 -1.10318,-6.5724 z m 58.07032,507.8379 c 0.0232,0 0.0452,0.01 0.0684,0.01 0.009,0 0.018,0 0.0273,0.01 z m 287.13672,0 -0.0957,0.016 c 0.009,0 0.018,0 0.0273,-0.01 0.0232,0 0.0452,-0.01 0.0684,-0.01 z"
       id="path22591"
       sodipodi:nodetypes="ccccscccscscsccccsccccccccsccccccccccccccsccccccc" /><path
       style="color:#000000;fill:#393979;fill-opacity:1;stroke-width:32.438;-inkscape-stroke:none"
       d="m -901.04743,-7606.8544 v 482.0235 c -0.4723,3.0155 0.48695,5.6709 1.50586,8.1484 16.21824,39.3806 42.05637,58.1797 82.84375,65.2617 7.51431,1.3511 15.26319,2.0203 22.96478,2.534 10.16642,0.6782 20.25041,1.0855 29.60358,2.4328 40.69325,5.9783 68.07677,21.5946 101.24023,47.1816 33.16348,-25.587 60.54506,-41.2033 101.23829,-47.1816 16.43868,-2.3679 35.13484,-1.8323 52.56835,-4.9668 40.43852,-7.0214 66.1808,-25.5607 82.42383,-64.2558 1.57535,-2.9893 1.92578,-5.1832 1.92578,-8.5176 v -482.6602 z m 20.29297,25.8926 h 435.7168 v 441.5215 c 0,3.0502 -0.31869,5.0585 -1.75977,7.7929 -14.8586,35.3971 -38.40855,52.3564 -75.40039,58.7793 -15.94761,2.8673 -33.05032,2.3769 -48.08789,4.543 -37.22485,5.4687 -62.27251,19.7539 -92.60938,43.1602 -30.33686,-23.4063 -55.38646,-37.6915 -92.61132,-43.1602 -15.03757,-2.1661 -32.14028,-1.6757 -48.08789,-4.543 -37.31098,-6.4783 -60.94533,-23.6751 -75.78125,-59.6992 -0.93207,-2.2663 -1.81095,-4.6966 -1.37891,-7.4551 z"
       id="path22552"
       sodipodi:nodetypes="ccccscccccsccccsccccccscc" /><g
       id="g22907"
       transform="translate(-0.06250093,-18.659762)"><path
         style="color:#000000;opacity:1;fill:#ffffff;-inkscape-stroke:none"
         d="m -662.89062,-7452.2871 c -83.80228,0 -152.00391,68.2036 -152.00391,152.0059 0,83.8022 68.20163,152.0039 152.00391,152.0039 83.80227,0 152.00585,-68.2017 152.00585,-152.0039 0,-83.8023 -68.20358,-152.0059 -152.00585,-152.0059 z m 0,25 c 70.29128,0 127.00585,56.7146 127.00585,127.0059 0,70.2912 -56.71457,127.0039 -127.00585,127.0039 -70.29129,0 -127.00391,-56.7127 -127.00391,-127.0039 0,-70.2913 56.71262,-127.0059 127.00391,-127.0059 z"
         id="path22892" /><path
         d="m -662.82462,-7419.7741 28.38508,81.2721 85.91856,1.9222 -68.4676,52.059 24.88825,82.3756 -70.72429,-48.9652 -70.75756,48.9652 24.76256,-82.3756 -68.56371,-52.0572 86.07752,-1.924 z"
         fill="#fedf00"
         stroke="#000000"
         stroke-width="3.909"
         id="path12"
         style="fill:#ffffff;stroke:none" /></g><path
       style="fill:#ffffff"
       d="m -661.88763,-7084.1121 -1.75,-0.502 v -31.4581 -31.4581 l 1.25,-0.4335 c 0.6875,-0.2384 5.525,-0.5618 10.75,-0.7186 l 9.5,-0.2851 v 31.4281 31.428 l -2.79296,0.747 c -3.91405,1.0467 -14.8567,1.8549 -16.95704,1.2523 z m 25.77323,-1.7168 -1.55436,-1.1386 0.26556,-31.5 0.26557,-31.5 6.81974,-2.2787 c 3.75085,-1.2533 8.88044,-2.5611 11.39908,-2.9063 l 4.57935,-0.6277 1.35091,1.8475 1.35092,1.8475 v 17.2737 17.2736 l 1.75,0.9143 1.75,0.9143 4.5,-1.2769 c 2.475,-0.7023 6.16955,-1.8429 8.21012,-2.5346 l 3.71012,-1.2578 1.53988,1.278 1.53988,1.278 v 10.3519 10.3518 l -2.84717,1.4724 c -2.81194,1.4541 -20.38325,6.2313 -35.36403,9.6147 l -7.71121,1.7415 z m -44.52323,-0.2726 c -1.375,-0.223 -3.9625,-0.6419 -5.75,-0.931 l -3.25,-0.5256 v -10.7638 -10.7639 l -5,-1.5989 -5,-1.5989 v 9.2531 9.253 l -1.91515,1.7332 -1.91515,1.7332 -8.82057,-3.0403 c -4.85131,-1.6722 -9.38949,-3.8184 -10.08485,-4.7694 l -1.26428,-1.729 v -28.8088 -28.8089 h 1.85078 c 1.01792,0 3.15542,0.4195 4.75,0.9322 1.59457,0.5128 5.45913,1.6423 8.5879,2.5101 3.12877,0.8679 6.39127,2.2805 7.25,3.1392 l 1.56132,1.5614 v 9.8491 9.8491 l 3.25,0.6541 c 1.7875,0.3598 4.02148,0.8708 4.9644,1.1355 l 1.7144,0.4815 0.2856,-10.3061 0.2856,-10.3061 9.59901,-0.2844 9.59902,-0.2844 1.16606,1.405 1.16607,1.4051 -0.26508,29.8793 -0.26508,29.8794 -5,0.1357 c -2.75,0.075 -6.125,-0.047 -7.5,-0.2697 z m 96.6596,-15.5039 c -0.34776,-1.2992 -0.63844,-15.1042 -0.64595,-30.6778 l -0.0136,-28.3158 1.06361,-1.9873 c 0.58498,-1.0931 3.62248,-3.6183 6.75,-5.6116 3.12751,-1.9933 10.50091,-7.1163 16.38532,-11.3844 12.30756,-8.927 14.46993,-10.2079 15.82174,-9.3724 l 0.97933,0.6052 v 11.286 11.286 l -1.75,1.5688 c -0.9625,0.8627 -5.125,3.5536 -9.25,5.9797 l -7.5,4.4111 -0.31642,2.6752 -0.31642,2.6752 h 1.08449 c 0.59647,0 4.0231,-1.7853 7.61473,-3.9673 3.59163,-2.1819 7.296,-4.0944 8.23193,-4.25 l 1.70169,-0.2827 0.29223,7.1717 0.29223,7.1717 -2.02625,1.8877 c -1.11444,1.0383 -5.40359,3.661 -9.53145,5.8283 l -7.5052,3.9406 -0.0108,2.7644 -0.0108,2.7644 5.75,-2.9623 c 3.1625,-1.6293 7.1,-3.8828 8.75,-5.0078 3.5996,-2.4543 6.06865,-2.6252 6.89301,-0.4769 0.94216,2.4552 0.7153,12.0031 -0.35187,14.81 l -0.95887,2.522 -16.66048,8.1543 c -9.16326,4.4848 -18.3411,8.3797 -20.39519,8.6552 l -3.73471,0.5009 -0.63229,-2.3621 z m -166.6596,-3.7599 c -4.125,-1.5403 -10.80615,-4.4711 -14.847,-6.5128 l -7.34699,-3.7122 -4.30641,-4.431 -4.30641,-4.431 -1.59659,-4.6857 -1.5966,-4.6858 v -18.854 -18.8539 l 1.36357,-3.2635 c 1.6883,-4.0407 5.54809,-6.6723 9.78625,-6.6723 h 3.22019 l 7.065,3.651 c 3.88574,2.008 8.70741,4.6852 10.71482,5.9493 2.0074,1.2641 7.75387,4.3991 12.76993,6.9666 5.01606,2.5676 9.94762,5.7203 10.95904,7.0061 l 1.83893,2.3379 0.67363,8.3021 0.67363,8.3021 -1.13032,3.2425 -1.13032,3.2424 h -2.74562 c -3.23561,0 -13.46306,-3.3797 -16.75524,-5.5368 l -2.30349,-1.5093 v -2.9769 -2.977 l -1.97456,-1.9746 c -1.08601,-1.086 -3.15931,-2.2719 -4.60734,-2.6353 l -2.63277,-0.6608 -0.87735,1.3854 c -1.19427,1.8857 -1.14226,17.1389 0.0693,20.3255 l 0.97728,2.5705 3.47469,1.657 3.47469,1.6569 1.54803,-1.2847 1.54803,-1.2848 v -3.8775 -3.8776 h 1.94279 c 1.06853,0 5.13032,1.1815 9.02619,2.6256 l 7.08341,2.6255 2.08273,2.6245 2.08273,2.6244 -0.61861,6.7791 c -0.71791,7.8672 -1.88599,10.1546 -6.2411,12.2212 -4.51391,2.142 -8.80279,1.7965 -17.35814,-1.3981 z m -78.4433,-301.3247 -1.5567,-2.2225 0.004,-62.0275 0.004,-62.0275 1.94844,-3.1955 1.94844,-3.1956 3.81959,-1.1443 3.8196,-1.1444 16.69443,0.3399 16.69444,0.3399 1.60737,1.6093 c 0.88405,0.8851 2.01352,3.3601 2.50993,5.5 l 0.90257,3.8907 0.03,38 0.0301,38 -8.1647,7.75 -8.16471,7.75 h -2.2345 -2.23449 l -0.60699,-1.5818 c -0.33378,-0.87 -0.60692,-6.495 -0.60692,-12.5 v -10.9182 h -2 -2 v 17.0295 17.0294 l -7.9301,11.8368 c -9.17064,13.6884 -11.38466,15.3484 -14.5132,10.8818 z m 28.4433,-96.1705 v -15.393 l -1.62675,-0.6243 c -0.89471,-0.3433 -2.24471,-0.1113 -3,0.5155 l -1.37325,1.1397 v 14.8775 14.8776 h 3 3 z m 286,84.9965 c -4.84843,-3.6061 -16.327,-15.291 -22.24264,-22.6425 l -3.65246,-4.539 -1.00542,-4.461 -1.00542,-4.461 0.20297,-16.5 0.20297,-16.5 2.77859,-0.3192 2.77859,-0.3192 5.22141,4.2297 c 2.87178,2.3262 6.00891,5.1072 6.97141,6.1799 l 1.75,1.9504 v 8.4388 8.4389 l 1.52568,2.9504 c 1.62358,3.1396 3.32153,3.7031 5.27432,1.7503 l 1.2,-1.2 v -8.139 -8.1389 l -2.6863,-3.4111 c -1.47746,-1.876 -6.41763,-6.4656 -10.97816,-10.1991 -4.56053,-3.7335 -9.5392,-8.4228 -11.06371,-10.4207 l -2.77183,-3.6327 -0.35173,-12.8802 c -0.19346,-7.0841 -0.0631,-14.419 0.28979,-16.2998 0.76973,-4.103 4.64253,-8.9517 8.91456,-11.1608 l 3.11438,-1.6106 9.70866,0.097 9.70865,0.097 3.80784,1.9441 c 4.06192,2.0738 9.674,8.3582 11.31251,12.6679 1.33355,3.5075 1.266,15.4128 -0.10984,19.3596 -1.4824,4.2524 -3.49234,5.1281 -11.77006,5.1281 h -7.00673 l -0.80508,-1.25 c -0.4428,-0.6875 -1.03185,-3.95 -1.30902,-7.25 l -0.50393,-6 h -2.5 -2.5 l -0.33288,2.3517 c -0.18308,1.2934 -0.068,3.4071 0.25577,4.6971 l 0.58865,2.3454 9.01928,7.8029 9.01927,7.8029 3.47496,6.8844 3.47495,6.8843 v 23.8281 23.8282 l -2.00217,5.3513 c -1.10119,2.9432 -2.91872,6.335 -4.03896,7.5375 l -2.03678,2.1862 -2.71105,-0.025 -2.71104,-0.025 z m -42.43899,-37.2769 -7.56101,-6.6733 v -11.3267 -11.3266 h -3 -3 v 7.8776 7.8775 l -1.44311,1.1977 -1.44311,1.1977 -8.04286,-4.3253 -8.04285,-4.3252 -0.014,-26.1049 -0.014,-26.105 5.44366,-5.1484 c 6.4673,-6.1165 8.84113,-7.1488 16.37144,-7.1197 l 5.6849,0.022 4.12298,1.8723 c 4.74548,2.155 8.98515,7.0381 11.50838,13.255 l 1.75689,4.3288 0.0559,35.143 0.0559,35.143 -1.58179,0.607 c -2.67542,1.0267 -3.07135,0.8054 -10.8572,-6.0664 z m -6.56101,-55.7914 v -4.4648 l -1.80388,-0.9654 -1.80388,-0.9654 -1.32454,0.8186 -1.32454,0.8186 -0.18765,3.8616 c -0.24283,4.9971 -0.005,5.3616 3.50351,5.3616 h 2.94098 z m -210.5169,50.2814 c -0.27887,-0.7268 -0.38916,-18.8703 -0.24507,-40.319 l 0.26197,-38.9976 15.71919,-0.2752 15.71918,-0.2753 4.09555,3.7001 c 2.25256,2.0351 4.74142,4.9491 5.53082,6.4756 l 1.43526,2.7755 v 21.0026 21.0026 l -1.24156,2.7249 -1.24157,2.725 -7.50843,4.9149 c -7.22731,4.7308 -25.09732,13.8661 -29.76337,15.2152 l -2.25492,0.652 z m 22.88204,-29.8892 2.63486,-2.0726 -0.004,-10.1774 -0.004,-10.1774 -1.98156,-3.25 -1.98156,-3.25 h -2.01418 -2.0147 v 15.5 15.5 h 1.36514 c 0.75083,0 2.55083,-0.9327 4,-2.0726 z m 147.42728,9.531 -6.70759,-3.4432 -1.23189,-4.1117 c -1.87385,-6.2544 -5.79592,-6.3364 -5.83763,-0.1221 -0.0226,3.3693 -1.83729,3.5424 -10.07947,0.9617 l -7.43584,-2.3283 -0.26835,-24.4574 -0.26834,-24.4574 1.70947,-1.25 c 1.89883,-1.3885 10.11656,-1.6705 12.09444,-0.415 0.69697,0.4424 2.57861,3.9127 4.18143,7.7118 1.60282,3.7991 3.39507,7.0678 3.98278,7.2637 l 1.06857,0.3562 v -7.6196 -7.6195 l 9.75,0.2862 9.75,0.2862 0.26508,29.8794 0.26508,29.8793 -1.13753,1.3707 c -1.5939,1.9205 -2.51578,1.7224 -10.10021,-2.171 z m -116.76267,-4.9966 c -1.90863,-0.8527 -4.27113,-2.2753 -5.25,-3.1611 l -1.77975,-1.6107 v -25.345 -25.345 h 9 9 v 16.5733 16.5733 l 1.75,-0.336 1.75,-0.336 0.27477,-16.2373 0.27477,-16.2373 h 8.47523 8.47523 v 25.4858 25.4858 l -4.17281,2.7642 -4.17281,2.7642 -10.07719,0.2562 -10.07719,0.2561 z m 35.97025,-25.2274 v -19.7656 l 1.81754,-3.4844 1.81754,-3.4844 5.43246,-2.8278 5.43246,-2.8277 8.09211,0.3902 8.09211,0.3902 4.52074,2.6493 c 2.4864,1.4572 5.93245,4.2572 7.65789,6.2224 l 3.13715,3.573 v 19.4652 19.4652 h -8 -8 v -1.8 c 0,-2.8916 -2.09493,-4.2 -6.725,-4.2 h -4.325 l -0.6,3 -0.6,3 h -8.875 -8.875 z m 26,-8.2344 v -4 h -3 -3 v 4 4 h 3 3 z"
       id="path26743" /></g></svg>
